<svg width="32" height="34" viewBox="0 0 32 34" fill="none" xmlns="http://www.w3.org/2000/svg">
<path d="M0.998047 13V28C0.998047 30.7617 3.23638 33 5.99805 33H25.998C28.7597 33 30.998 30.7617 30.998 28V13" stroke="#DBA940" stroke-width="1.5" stroke-linecap="round" stroke-linejoin="round"/>
<path d="M3.32979 9.27565L13.0981 2.27065C14.8398 1.02065 17.1848 1.02232 18.9265 2.27232L28.6531 9.25732C31.7681 11.494 31.7665 15.1523 28.6498 17.3856L18.8998 24.3773C17.1581 25.6273 14.8131 25.6257 13.0715 24.3757L3.32646 17.3773C0.223126 15.1473 0.224792 11.5023 3.32979 9.27565V9.27565Z" stroke="#DBA940" stroke-width="1.5" stroke-linecap="round" stroke-linejoin="round"/>
<path d="M26.0029 19.2833V16.3333C26.0029 14.4917 24.5113 13 22.6696 13H9.33626C7.4946 13 6.00293 14.4917 6.00293 16.3333V19.2083" stroke="#DBA940" stroke-width="1.5" stroke-linecap="round" stroke-linejoin="round"/>
</svg>
