<svg width="32" height="33" viewBox="0 0 32 33" fill="none" xmlns="http://www.w3.org/2000/svg">
<path d="M12.7467 20.1156C10.7967 18.1656 9.32673 15.9823 8.35007 13.7673C8.1434 13.2989 8.26507 12.7506 8.62673 12.3889L9.99173 11.0239C11.1101 9.9056 11.1101 8.32393 10.1334 7.34727L8.17673 5.39227C6.87507 4.0906 4.76507 4.0906 3.4634 5.39227L2.37673 6.47727C1.14173 7.71227 0.626734 9.49393 0.960067 11.2606C1.7834 15.6156 4.3134 20.3839 8.39507 24.4656C12.4767 28.5473 17.2451 31.0773 21.6001 31.9006C23.3667 32.2339 25.1484 31.7189 26.3834 30.4839L27.4684 29.3989C28.7701 28.0973 28.7701 25.9873 27.4684 24.6856L25.5134 22.7306C24.5367 21.7539 22.9534 21.7539 21.9784 22.7306L20.4734 24.2373C20.1117 24.5989 19.5634 24.7206 19.0951 24.5139C16.8801 23.5356 14.6967 22.0639 12.7467 20.1156V20.1156Z" stroke="#DBA940" stroke-width="1.5" stroke-linecap="round" stroke-linejoin="round"/>
<path d="M17.5332 5.6168V1.7168" stroke="#DBA940" stroke-width="1.5" stroke-linecap="round" stroke-linejoin="round"/>
<path d="M24.4834 8.36615L27.2334 5.63281" stroke="#DBA940" stroke-width="1.5" stroke-linecap="round" stroke-linejoin="round"/>
<path d="M27.25 15.333H31.1333" stroke="#DBA940" stroke-width="1.5" stroke-linecap="round" stroke-linejoin="round"/>
</svg>
