<svg width="60" height="60" viewBox="0 0 60 60" fill="none" xmlns="http://www.w3.org/2000/svg">
<path d="M31.7701 54.2679L54.2651 31.7679C55.2426 30.7904 55.2426 29.2054 54.2651 28.2254L31.7701 5.72539C30.7976 4.75039 29.2026 4.75039 28.2301 5.72539L5.73508 28.2254C4.75758 29.2029 4.75758 30.7879 5.73508 31.7679L28.2301 54.2679C29.2026 55.2404 30.7976 55.2404 31.7701 54.2679Z" stroke="#577CFF" stroke-width="2" stroke-linecap="round" stroke-linejoin="round"/>
<path d="M30.5725 53.9501L40 32.1601L30.59 5.56762C30.3925 5.01262 29.6075 5.01262 29.4125 5.56762L20 32.1601L29.4275 53.9526C29.6425 54.4526 30.3575 54.4526 30.5725 53.9501V53.9501Z" stroke="#577CFF" stroke-width="2" stroke-linecap="round" stroke-linejoin="round"/>
<path d="M5.0127 29.9297L21.3352 32.5997H38.6652L54.9877 29.9297" stroke="#577CFF" stroke-width="2" stroke-linecap="round" stroke-linejoin="round"/>
</svg>
